<?xml version="1.0" encoding="utf-8"?>
<!-- Generator: Adobe Illustrator 16.0.0, SVG Export Plug-In . SVG Version: 6.00 Build 0)  -->
<!DOCTYPE svg PUBLIC "-//W3C//DTD SVG 1.1//EN" "http://www.w3.org/Graphics/SVG/1.1/DTD/svg11.dtd">
<svg version="1.1" id="图层_1" xmlns="http://www.w3.org/2000/svg" xmlns:xlink="http://www.w3.org/1999/xlink" x="0px" y="0px"
	 width="14px" height="14px" viewBox="0 0 14 14" enable-background="new 0 0 14 14" xml:space="preserve">
<g>
	<path fill-rule="evenodd" clip-rule="evenodd" fill="#666666" d="M2.5,6.318h9.001c0.414,0,0.75,0.335,0.75,0.75
		s-0.336,0.75-0.75,0.75H2.5c-0.414,0-0.75-0.335-0.75-0.75S2.085,6.318,2.5,6.318z"/>
	<path fill-rule="evenodd" clip-rule="evenodd" fill="#666666" d="M3.087,6.51l4.434,4.463c0.306,0.308,0.306,0.808,0,1.115
		c-0.306,0.308-0.803,0.308-1.108,0L1.979,7.626c-0.306-0.309-0.306-0.808,0-1.116C2.285,6.203,2.781,6.203,3.087,6.51z"/>
	<path fill-rule="evenodd" clip-rule="evenodd" fill="#666666" d="M7.521,3.164L3.087,7.626c-0.307,0.308-0.803,0.308-1.109,0
		c-0.306-0.309-0.306-0.808,0-1.116l4.434-4.462c0.306-0.308,0.802-0.308,1.108,0C7.827,2.356,7.827,2.856,7.521,3.164z"/>
</g>
</svg>
