<?xml version="1.0" encoding="utf-8"?>
<!-- Generator: Adobe Illustrator 16.0.0, SVG Export Plug-In . SVG Version: 6.00 Build 0)  -->
<!DOCTYPE svg PUBLIC "-//W3C//DTD SVG 1.1//EN" "http://www.w3.org/Graphics/SVG/1.1/DTD/svg11.dtd">
<svg version="1.1" id="图层_1" xmlns="http://www.w3.org/2000/svg" xmlns:xlink="http://www.w3.org/1999/xlink" x="0px" y="0px"
	 width="14px" height="14px" viewBox="0 0 14 14" enable-background="new 0 0 14 14" xml:space="preserve">
<g>
	<path fill-rule="evenodd" clip-rule="evenodd" fill="#666666" d="M12.251,7.068c0,0.415-0.336,0.75-0.75,0.75H2.498
		c-0.414,0-0.75-0.335-0.75-0.75s0.336-0.75,0.75-0.75h9.003C11.915,6.318,12.251,6.654,12.251,7.068z"/>
	<path fill-rule="evenodd" clip-rule="evenodd" fill="#666666" d="M12.021,6.51c0.307,0.309,0.307,0.808,0,1.116l-4.434,4.462
		c-0.306,0.308-0.803,0.308-1.109,0c-0.306-0.308-0.306-0.808,0-1.115l4.435-4.463C11.22,6.203,11.716,6.203,12.021,6.51z"/>
	<path fill-rule="evenodd" clip-rule="evenodd" fill="#666666" d="M6.479,2.048c0.306-0.308,0.803-0.308,1.109,0l4.434,4.462
		c0.307,0.309,0.307,0.808,0,1.116c-0.306,0.308-0.802,0.308-1.108,0L6.479,3.164C6.173,2.856,6.173,2.356,6.479,2.048z"/>
</g>
</svg>
