<?xml version="1.0" encoding="utf-8"?>
<!-- Generator: Adobe Illustrator 16.0.0, SVG Export Plug-In . SVG Version: 6.00 Build 0)  -->
<!DOCTYPE svg PUBLIC "-//W3C//DTD SVG 1.1//EN" "http://www.w3.org/Graphics/SVG/1.1/DTD/svg11.dtd">
<svg version="1.1" id="图层_1" xmlns="http://www.w3.org/2000/svg" xmlns:xlink="http://www.w3.org/1999/xlink" x="0px" y="0px"
	 width="14px" height="14px" viewBox="0 0 14 14" enable-background="new 0 0 14 14" xml:space="preserve">
<g>
	<path fill="#666666" d="M13.376,3.7c0,0.234-0.189,0.424-0.424,0.424H1.048c-0.233,0-0.424-0.189-0.424-0.424l0,0
		c0-0.234,0.19-0.424,0.424-0.424h11.904C13.187,3.276,13.376,3.466,13.376,3.7L13.376,3.7z"/>
	<path fill="#666666" d="M8.548,4.751c0.234,0,0.424,0.189,0.424,0.424v4.398c0,0.232-0.189,0.424-0.424,0.424l0,0
		c-0.234,0-0.424-0.191-0.424-0.424V5.175C8.124,4.94,8.313,4.751,8.548,4.751L8.548,4.751z"/>
	<path fill="#666666" d="M5.422,4.751c0.234,0,0.424,0.189,0.424,0.424v4.398c0,0.232-0.189,0.424-0.424,0.424l0,0
		c-0.234,0-0.424-0.191-0.424-0.424V5.175C4.999,4.94,5.188,4.751,5.422,4.751L5.422,4.751z"/>
	<path fill="#666666" d="M4.441,2.216c0-0.225,0.183-0.408,0.407-0.408h4.303c0.226,0,0.407,0.184,0.407,0.408v1.16h0.816v-1.16
		c0-0.674-0.549-1.223-1.224-1.223H4.848c-0.674,0-1.223,0.549-1.223,1.223v1.16h0.815V2.216z"/>
	<path fill="#666666" d="M11.016,11.784c0,0.225-0.183,0.408-0.407,0.408H3.394c-0.226,0-0.407-0.184-0.407-0.408V4.751H2.17v7.033
		c0,0.674,0.549,1.223,1.224,1.223h7.215c0.674,0,1.223-0.549,1.223-1.223V4.751h-0.815V11.784z"/>
</g>
</svg>
