<?xml version="1.0" encoding="utf-8"?>
<!-- Generator: Adobe Illustrator 16.0.0, SVG Export Plug-In . SVG Version: 6.00 Build 0)  -->
<!DOCTYPE svg PUBLIC "-//W3C//DTD SVG 1.1//EN" "http://www.w3.org/Graphics/SVG/1.1/DTD/svg11.dtd">
<svg version="1.1" id="图层_1" xmlns="http://www.w3.org/2000/svg" xmlns:xlink="http://www.w3.org/1999/xlink" x="0px" y="0px"
	 width="14px" height="14px" viewBox="0 0 14 14" enable-background="new 0 0 14 14" xml:space="preserve">
<g>
	<path fill-rule="evenodd" clip-rule="evenodd" fill="#999999" d="M10.051,8.958l1.922,1.844c0.354,0.338,0.354,0.889,0,1.229
		c-0.354,0.338-0.928,0.338-1.281,0L8.77,10.187c-0.354-0.338-0.354-0.889,0-1.229C9.123,8.62,9.697,8.62,10.051,8.958z"/>
	<path fill-rule="evenodd" clip-rule="evenodd" fill="#999999" d="M6.258,1.807c-2.482,0-4.496,2.013-4.496,4.496
		s2.014,4.495,4.496,4.495s4.496-2.012,4.496-4.495S8.74,1.807,6.258,1.807z M6.264,9.31c-1.658,0-3.002-1.344-3.002-3.002
		c0-1.656,1.344-3,3.002-3c1.656,0,3,1.344,3,3C9.264,7.965,7.92,9.31,6.264,9.31z"/>
</g>
</svg>
