<?xml version="1.0" encoding="utf-8"?>
<!-- Generator: Adobe Illustrator 16.0.0, SVG Export Plug-In . SVG Version: 6.00 Build 0)  -->
<!DOCTYPE svg PUBLIC "-//W3C//DTD SVG 1.1//EN" "http://www.w3.org/Graphics/SVG/1.1/DTD/svg11.dtd">
<svg version="1.1" id="图层_1" xmlns="http://www.w3.org/2000/svg" xmlns:xlink="http://www.w3.org/1999/xlink" x="0px" y="0px"
	 width="14px" height="14px" viewBox="0 0 14 14" enable-background="new 0 0 14 14" xml:space="preserve">
<g>
	<path fill="#666666" d="M12.082,3.122h-0.596V2.237c0-0.674-0.549-1.223-1.224-1.223H3.736c-0.674,0-1.223,0.549-1.223,1.223v0.885
		H1.916c-0.674,0-1.222,0.549-1.222,1.223v3.672c0,0.674,0.548,1.223,1.222,1.223h1.005v2.525c0,0.674,0.549,1.221,1.223,1.221
		h5.713c0.674,0,1.222-0.547,1.222-1.221V9.239h1.004c0.675,0,1.224-0.549,1.224-1.223V4.345
		C13.306,3.671,12.757,3.122,12.082,3.122L12.082,3.122z M3.329,2.237c0-0.225,0.183-0.408,0.407-0.408h6.526
		c0.226,0,0.407,0.184,0.407,0.408v0.885H3.329V2.237L3.329,2.237z M9.856,12.171H4.144c-0.225,0-0.406-0.182-0.406-0.406v-4.49
		c0-0.225,0.182-0.406,0.406-0.406h5.713c0.224,0,0.405,0.182,0.405,0.406v1.549c0,0.004,0,0.006,0,0.008s0,0.006,0,0.008v2.926
		C10.262,11.989,10.08,12.171,9.856,12.171L9.856,12.171z M12.49,8.017c0,0.225-0.183,0.406-0.408,0.406h-1.004V7.274
		c0-0.674-0.548-1.221-1.222-1.221H4.144c-0.674,0-1.223,0.547-1.223,1.221v1.148H1.916c-0.224,0-0.406-0.182-0.406-0.406V4.345
		c0-0.225,0.183-0.408,0.406-0.408h0.997c0.003,0,0.006,0,0.008,0c0.003,0,0.006,0,0.009,0h8.141c0.003,0,0.005,0,0.008,0
		s0.006,0,0.008,0h0.996c0.226,0,0.408,0.184,0.408,0.408V8.017L12.49,8.017z M12.49,8.017"/>
	<path fill="#666666" d="M8.835,7.839H5.164c-0.225,0-0.407,0.197-0.407,0.424c0,0.225,0.183,0.424,0.407,0.424h3.671
		c0.226,0,0.407-0.199,0.407-0.424C9.242,8.036,9.061,7.839,8.835,7.839L8.835,7.839z M8.835,7.839"/>
	<path fill="#666666" d="M8.835,9.899H5.164c-0.225,0-0.407,0.172-0.407,0.396s0.183,0.398,0.407,0.398h3.671
		c0.226,0,0.407-0.174,0.407-0.398S9.061,9.899,8.835,9.899L8.835,9.899z M8.835,9.899"/>
</g>
</svg>
