<?xml version="1.0" encoding="utf-8"?>
<!-- Generator: Adobe Illustrator 16.0.0, SVG Export Plug-In . SVG Version: 6.00 Build 0)  -->
<!DOCTYPE svg PUBLIC "-//W3C//DTD SVG 1.1//EN" "http://www.w3.org/Graphics/SVG/1.1/DTD/svg11.dtd">
<svg version="1.1" id="图层_1" xmlns="http://www.w3.org/2000/svg" xmlns:xlink="http://www.w3.org/1999/xlink" x="0px" y="0px"
	 width="14px" height="14px" viewBox="0 0 14 14" enable-background="new 0 0 14 14" xml:space="preserve">
<path fill-rule="evenodd" clip-rule="evenodd" fill="#666666" d="M11.976,1.814l-1.568,1.569c-0.945-0.956-2.24-1.561-3.693-1.561
	c-2.9,0-5.251,2.351-5.251,5.25s2.351,5.25,5.251,5.25c2.643,0,4.809-1.959,5.176-4.5h-1.501c-0.348,1.712-1.86,3-3.675,3
	c-2.071,0-3.751-1.679-3.751-3.75s1.68-3.75,3.751-3.75c1.036,0,1.966,0.43,2.645,1.109L7.474,6.316h2.913
	c0,0.002,0.002,0.004,0.002,0.006h1.501c0-0.002-0.001-0.004-0.002-0.006h0.088V1.814z"/>
</svg>
